#!OML:ASF E:\Steps\Project 1\Capture day 1\Session 2\Subject.ASF
:FULLY-SPECIFIED
:DEGREES
278
root 13.4354 16.6162 12.1662 -153.967 4.60946 179.346
lowerback -24.4949 -0.287818 -3.10177
upperback 1.36986 0.473146 1.3371
thorax 15.406 -0.0690129 3.53156
lowerneck -0.657723 -2.68714 -0.0453188
upperneck 20.0733 -2.50429 1.97475
head 6.2086 -0.491642 0.561445
rclavicle -1.36167e-014 1.19271e-015
rhumerus -39.5947 -5.18715 -76.087
rradius 60.9323
rwrist -15.5212
rhand -12.4073 92.9269
rfingers 7.12502
rthumb 13.6645 122.458
lclavicle -1.36167e-014 1.19271e-015
lhumerus -37.0103 2.5364 75.0915
lradius 30.9328
lwrist 0.311065
lhand -21.8593 -13.8149
lfingers 7.12502
lthumb 4.54461 16.1164
rfemur -8.97393 9.14283 7.61068
rtibia 48.5682
rfoot -27.8644 14.0446
rtoes -26.5439
lfemur -52.189 -2.59763 -14.7148
ltibia 32.7661
lfoot -4.31713 0.907407
ltoes -39.827
279
root 13.3862 16.6397 12.0869 -153.643 4.81011 179.365
lowerback -24.0883 -0.175605 -3.39965
upperback 1.24442 0.697422 1.34972
thorax 14.9981 0.0211143 3.78779
lowerneck -0.541068 -2.62693 -0.124531
upperneck 20.1849 -2.37675 1.9357
head 6.22324 -0.426625 0.571635
rclavicle 3.47873e-015 -2.78299e-015
rhumerus -39.9364 -4.87119 -75.9674
rradius 60.6935
rwrist -14.5582
rhand -11.2117 90.4673
rfingers 7.12502
rthumb 14.8165 119.918
lclavicle 3.47873e-015 -2.78299e-015
lhumerus -37.171 2.45763 75.4462
lradius 31.7428
lwrist 0.615527
lhand -21.9309 -14.1168
lfingers 7.12502
lthumb 4.4755 15.8159
rfemur -9.09259 9.17204 7.28899
rtibia 48.2675
rfoot -26.6164 13.8302
rtoes -26.9333
lfemur -51.9414 -2.54031 -14.9437
ltibia 32.3001
lfoot -4.55368 0.862174
ltoes -39.0931
280
root 13.3386 16.6635 12.0168 -153.21 5.05156 179.386
lowerback -23.8962 -0.0638567 -3.67264
upperback 1.18567 0.922893 1.32017
thorax 14.7934 0.109792 3.98542
lowerneck -0.358338 -2.85158 -0.403858
upperneck 20.0255 -2.74374 2.36362
head 6.15559 -0.599508 0.735359
rclavicle 2.03754e-014 2.18663e-014
rhumerus -39.9542 -4.71546 -75.9576
rradius 60.3011
rwrist -13.4653
rhand -10.0726 -87.8596
rfingers 7.12502
rthumb 15.9137 117.226
lclavicle 2.03754e-014 2.18663e-014
lhumerus -37.1885 2.12228 75.8334
lradius 32.5963
lwrist 1.40619
lhand -22.1241 -14.029
lfingers 7.12502
lthumb 4.2889 15.9075
rfemur -9.52971 9.1611 6.94886
rtibia 48.238
rfoot -25.5988 13.6544
rtoes -27.0517
lfemur -51.9107 -2.40937 -15.1785
ltibia 31.9784
lfoot -4.66982 0.756866
ltoes -37.7582
281
root 13.29 16.6882 11.9518 -152.71 5.21729 179.428
lowerback -23.8825 -0.00927308 -3.82043
upperback 1.21265 1.04064 1.28034
thorax 14.8052 0.151004 4.06655
lowerneck -0.29222 -2.90945 -0.551622
upperneck 19.7644 -2.88741 2.63374
head 6.06967 -0.677159 0.836778
rclavicle 2.78299e-015 1.86858e-014
rhumerus -39.7263 -4.43312 -76.0429
rradius 59.8481
rwrist -12.5151
rhand -9.03278 -85.0421
rfingers 7.12502
rthumb 16.9149 114.325
lclavicle 2.78299e-015 1.86858e-014
lhumerus -37.0734 1.80801 76.1623
lradius 33.4482
lwrist 2.52663
lhand -22.1554 -13.3033
lfingers 7.12502
lthumb 4.25875 16.6338
rfemur -10.1548 9.05095 6.65834
rtibia 48.4411
rfoot -24.3667 13.1987
rtoes -26.9371
lfemur -51.9988 -2.27582 -15.4101
ltibia 31.6383
lfoot -4.69247 0.577322
ltoes -36.6875
282
root 13.2423 16.7181 11.8913 -152.335 5.40134 179.348
lowerback -23.6542 0.0278832 -4.03406
upperback 1.22123 1.15337 1.16584
thorax 14.6716 0.19331 4.08961
lowerneck -0.631212 -2.93421 -0.436796
upperneck 19.9007 -2.94911 2.65721
head 6.17081 -0.697497 0.818382
rclavicle 1.87852e-014 -2.38542e-015
rhumerus -39.6389 -4.14315 -76.1543
rradius 59.5459
rwrist -11.6614
rhand -8.08916 -82.1646
rfingers 7.12502
rthumb 17.8231 111.368
lclavicle 1.87852e-014 -2.38542e-015
lhumerus -37.0464 1.54433 76.375
lradius 34.2003
lwrist 3.48099
lhand -22.0989 -12.9385
lfingers 7.12502
lthumb 4.31329 16.9976
rfemur -10.7421 8.91032 6.2691
rtibia 48.7435
rfoot -22.9461 12.4532
rtoes -26.4442
lfemur -51.9096 -2.28656 -15.729
ltibia 31.1845
lfoot -4.75422 0.529129
ltoes -37.1198
283
root 13.1945 16.7487 11.8282 -152.02 5.55718 179.286
lowerback -23.4015 0.0755557 -4.2375
upperback 1.21427 1.27439 1.06082
thorax 14.5042 0.242037 4.11918
lowerneck -0.886527 -2.96318 -0.244993
upperneck 20.0395 -2.99991 2.60292
head 6.25597 -0.709504 0.763927
rclavicle -1.49089e-015 4.37326e-015
rhumerus -39.6042 -3.96745 -76.2312
rradius 59.3346
rwrist -10.9059
rhand -7.26914 -79.3234
rfingers 7.12502
rthumb 18.612 108.453
lclavicle -1.49089e-015 4.37326e-015
lhumerus -37.004 1.27077 76.5874
lradius 34.7437
lwrist 4.26188
lhand -22.2014 -12.738
lfingers 7.12502
lthumb 4.21426 17.2
rfemur -11.2314 8.74549 5.9159
rtibia 49.0104
rfoot -21.9121 12.1665
rtoes -26.809
lfemur -51.7443 -2.47189 -15.92
ltibia 30.7293
lfoot -4.80154 0.645564
ltoes -37.1373
284
root 13.1479 16.7733 11.7602 -151.562 5.66021 179.443
lowerback -23.3605 0.157021 -4.21271
upperback 1.18359 1.37707 1.04525
thorax 14.4343 0.294892 4.12061
lowerneck -1.05149 -3.02967 -0.146205
upperneck 20.1663 -3.08206 2.49509
head 6.32294 -0.746915 0.706974
rclavicle -1.63003e-014 1.63003e-014
rhumerus -39.4742 -3.87941 -76.2484
rradius 58.963
rwrist -10.2254
rhand -6.56029 -76.2624
rfingers 7.12502
rthumb 19.2937 105.325
lclavicle -1.63003e-014 1.63003e-014
lhumerus -36.9486 1.08715 76.8003
lradius 35.2981
lwrist 4.94267
lhand -22.0183 -12.4848
lfingers 7.12502
lthumb 4.39109 17.4497
rfemur -11.7969 8.60267 5.78618
rtibia 49.2156
rfoot -21.0957 12.2856
rtoes -28.1662
lfemur -51.7358 -2.53272 -15.89
ltibia 30.299
lfoot -4.75203 0.710283
ltoes -36.2284
285
root 13.1029 16.8013 11.6949 -151.199 5.83336 179.506
lowerback -23.2709 0.27576 -4.22425
upperback 1.18877 1.54502 0.953573
thorax 14.3739 0.376014 4.07643
lowerneck -1.1603 -3.11326 -0.173782
upperneck 20.1671 -3.22462 2.60199
head 6.34642 -0.813156 0.73586
rclavicle -5.96354e-016 -1.39149e-014
rhumerus -39.4735 -3.88617 -76.2844
rradius 58.7307
rwrist -9.78931
rhand -6.0043 -72.9126
rfingers 7.12502
rthumb 19.8282 101.921
lclavicle -5.96354e-016 -1.39149e-014
lhumerus -36.8462 0.828686 76.9802
lradius 35.8145
lwrist 5.43593
lhand -21.5561 -12.7006
lfingers 7.12502
lthumb 4.83736 17.2242
rfemur -12.3427 8.44521 5.54906
rtibia 49.4872
rfoot -20.3818 12.3031
rtoes -30.0178
lfemur -51.5767 -2.50657 -16.0484
ltibia 29.7876
lfoot -4.72559 0.736968
ltoes -35.8619
286
root 13.0571 16.8322 11.6351 -150.95 6.05134 179.396
lowerback -23.1402 0.332608 -4.42062
upperback 1.25323 1.68118 0.83007
thorax 14.3606 0.425412 4.09034
lowerneck -1.11978 -3.14791 -0.210899
upperneck 19.9456 -3.31988 2.76002
head 6.27354 -0.864735 0.78581
rclavicle -1.43125e-014 -2.18663e-014
rhumerus -39.349 -4.0405 -76.2932
rradius 58.479
rwrist -9.32817
rhand -5.52797 -69.3302
rfingers 7.12502
rthumb 20.2861 98.2908
lclavicle -1.43125e-014 -2.18663e-014
lhumerus -36.6067 0.658984 77.1686
lradius 36.0205
lwrist 5.69441
lhand -21.4186 -12.9474
lfingers 7.12502
lthumb 4.97019 16.9743
rfemur -12.8855 8.22026 5.12815
rtibia 49.9985
rfoot -19.9337 12.2417
rtoes -31.6539
lfemur -51.2851 -2.65194 -16.3387
ltibia 29.2253
lfoot -4.75003 0.867198
ltoes -35.7528
287
root 13.0115 16.8602 11.5774 -150.708 6.15588 179.41
lowerback -23.0641 0.318627 -4.51027
upperback 1.32073 1.68206 0.811717
thorax 14.3952 0.41491 4.11951
lowerneck -0.924188 -3.1133 -0.131929
upperneck 19.6353 -3.28961 2.7125
head 6.13835 -0.86557 0.759693
rclavicle -4.87022e-015 -6.75868e-015
rhumerus -39.012 -4.11935 -76.2582
rradius 58.0892
rwrist -8.78884
rhand -5.17662 -65.756
rfingers 7.12502
rthumb 20.6237 94.6803
lclavicle -4.87022e-015 -6.75868e-015
lhumerus -36.5082 0.566097 77.3492
lradius 36.2497
lwrist 6.07086
lhand -21.3223 -12.4308
lfingers 7.12502
lthumb 5.06319 17.4887
rfemur -13.4306 7.98529 4.90888
rtibia 50.5673
rfoot -18.7121 11.8376
rtoes -30.4689
lfemur -51.0289 -2.89208 -16.4084
ltibia 28.6613
lfoot -4.71906 1.02462
ltoes -35.6213
288
root 12.9672 16.8845 11.5141 -150.447 6.1547 179.544
lowerback -23.1549 0.31953 -4.42027
upperback 1.42949 1.65925 0.807688
thorax 14.5819 0.400244 4.06074
lowerneck -0.636258 -2.66337 0.0911024
upperneck 19.1189 -2.66546 2.41263
head 5.90806 -0.595004 0.661654
rclavicle 6.85807e-015 -6.36111e-015
rhumerus -38.7817 -4.04913 -76.2601
rradius 58.0213
rwrist -8.39613
rhand -5.055 -62.6703
rfingers 7.12502
rthumb 20.7406 91.582
lclavicle 6.85807e-015 -6.36111e-015
lhumerus -36.3654 0.28742 77.5457
lradius 36.4409
lwrist 6.3577
lhand -21.381 -11.8072
lfingers 7.12502
lthumb 5.00648 18.1137
rfemur -14.1551 7.57445 4.86848
rtibia 51.3854
rfoot -16.1115 10.6357
rtoes -25.9748
lfemur -50.7925 -3.0713 -16.3728
ltibia 28.097
lfoot -4.69341 1.10975
ltoes -35.5631
289
root 12.9248 16.9072 11.4497 -150.107 6.1578 179.725
lowerback -23.2668 0.360444 -4.29235
upperback 1.48215 1.68598 0.779775
thorax 14.7108 0.417294 3.96935
lowerneck -1.23306 -2.99159 0.0609724
upperneck 19.6821 -3.15389 2.66267
head 6.20028 -0.795597 0.715157
rclavicle -6.26172e-015 2.16675e-014
rhumerus -38.8008 -3.98586 -76.3897
rradius 58.2715
rwrist -8.7024
rhand -5.27278 -59.7332
rfingers 7.12502
rthumb 20.5313 271.332
lclavicle -6.26172e-015 2.16675e-014
lhumerus -36.2054 -0.331694 77.8187
lradius 36.5473
lwrist 6.59008
lhand -21.6853 -12.1405
lfingers 7.12502
lthumb 4.71265 17.7871
rfemur -15.036 7.2925 4.92338
rtibia 52.3429
rfoot -15.1079 10.0722
rtoes -27.104
lfemur -50.6332 -3.14604 -16.326
ltibia 27.5769
lfoot -4.68996 1.13313
ltoes -35.2858
